<svg width="327" height="272" viewBox="0 0 327 272" fill="none" xmlns="http://www.w3.org/2000/svg">
<g clip-path="url(#clip0_3_84)">
<path opacity="0.5" d="M66.7402 13.9548C53.1647 23.5652 41.5811 65.5571 32.1774 78.5472C-34.2639 170.238 19.0293 233.183 42.5813 252.139C60.6363 266.649 86.2229 271.258 110.561 271.906C151.467 272.99 192.057 264.626 232.98 264.763C254.532 264.839 277.536 266.982 296.241 257.525C321.665 244.723 329.581 214.85 326.29 189.024C322.999 163.197 311.287 138.71 307.842 112.917C305.32 94.004 307.149 74.1176 298.549 56.6722C287.598 34.4813 261.465 20.6889 234.886 15.107C208.308 9.52519 180.627 10.703 153.331 9.98607C138.371 9.53372 128.924 1.73279 114.562 0.27331C98.1057 -1.42514 79.3582 5.03581 66.7402 13.9548Z" fill="#AEC8C8"/>
<path opacity="0.24" d="M43.5219 88.5158C41.3078 111.765 47.3432 135.629 42.0259 158.374C40.1537 166.38 36.8966 174.079 35.8707 182.272C34.8449 190.466 36.5546 199.572 42.8978 204.864C46.514 207.86 51.1816 209.217 55.2936 211.496C59.4056 213.775 63.2696 217.667 63.0559 222.327C62.9362 225.126 61.3461 227.798 61.7308 230.571C62.3891 235.564 68.4245 237.579 73.3914 238.475C133.746 249.365 195.212 252.805 256.413 248.717C266.569 248.034 278.092 246.387 283.846 238.005C289.18 230.221 286.94 218.759 280.041 212.315C278.332 210.719 276.331 209.311 275.263 207.194C272.647 202.073 276.699 196.338 279.366 191.259C285.863 178.867 284.188 163.948 282.341 150.104C281.332 142.499 280.212 134.605 275.964 128.212C271.612 121.674 264.534 117.552 257.678 113.702C227.287 96.6326 196.203 80.4162 163.043 69.6451C131.344 59.3946 48.5229 35.9321 43.5219 88.5158Z" fill="#336B6B"/>
<path d="M208.813 234.088H66.7404C64.2784 234.088 53.3872 232.688 53.3872 230.973C53.3872 229.266 64.2784 227.866 66.7404 227.866H208.813V234.088Z" fill="white"/>
<path d="M285.991 230.358V232.483C285.983 239.917 279.947 245.934 272.501 245.926H188.527C182.551 245.926 177.285 241.991 175.592 236.273C175.225 235.044 175.037 233.764 175.037 232.483V230.358C175.028 228.361 175.49 226.389 176.37 224.597C178.593 219.903 183.329 216.916 188.527 216.916H272.501C279.947 216.916 285.983 222.933 285.991 230.358Z" fill="#336B6B"/>
<path d="M227.543 242.418V245.968H188.527C182.551 245.968 177.285 242.034 175.592 236.315C176.541 236.034 177.524 235.863 178.516 235.812C178.516 235.812 182.312 242.418 187.219 242.418H227.543Z" fill="url(#paint0_linear_3_84)"/>
<path d="M170.155 223.948V237.698C170.164 239.559 168.813 241.138 166.975 241.428C166.779 241.471 166.582 241.488 166.385 241.488C164.291 241.488 162.59 239.789 162.59 237.698V223.948C162.598 221.857 164.291 220.167 166.385 220.159C166.582 220.159 166.779 220.176 166.975 220.219C168.813 220.509 170.155 222.096 170.155 223.948Z" fill="#336B6B"/>
<path d="M237.528 221.251C237.528 221.251 191.664 220.662 186.312 221.251C180.961 221.84 178.012 228.361 178.012 228.361C177.311 227.183 176.755 225.92 176.37 224.597C178.593 219.903 183.329 216.916 188.527 216.916H237.255L237.528 221.251Z" fill="url(#paint1_linear_3_84)"/>
<path d="M183.654 224.307H167.633V237.63H183.654V224.307Z" fill="#336B6B"/>
<path d="M182.011 229.052H279.717C282.657 229.052 285.05 230.281 285.05 231.792C285.05 233.303 282.657 234.532 279.717 234.532H182.011C179.07 234.532 176.678 233.303 176.678 231.792C176.678 230.281 179.07 229.052 182.011 229.052Z" fill="url(#paint2_linear_3_84)"/>
<path d="M232.963 229.052H283.239C284.752 229.052 285.983 230.281 285.983 231.792C285.983 233.303 284.752 234.532 283.239 234.532H232.963C231.45 234.532 230.219 233.303 230.219 231.792C230.219 230.281 231.45 229.052 232.963 229.052Z" fill="url(#paint3_linear_3_84)"/>
<path d="M170.155 223.948V237.698C170.164 239.559 168.813 241.138 166.975 241.428V220.227C168.805 220.517 170.155 222.096 170.155 223.948Z" fill="url(#paint4_linear_3_84)"/>
<path d="M71.3824 227.866L67.6723 224.46L47.9502 227.123V233.635L65.7488 237.041L71.2371 233.789L71.3824 227.866Z" fill="white"/>
<path d="M162.59 231.86L70.4934 231.715L64.2613 234.455L48.2921 232.697L47.9502 233.635L65.7488 237.041L70.7156 234.079L162.59 234.378V231.86Z" fill="url(#paint5_linear_3_84)"/>
<path d="M112.793 116.758V114.974C112.827 114.889 112.861 114.803 112.878 114.718C113.178 112.439 113.853 110.22 114.879 108.163C115.511 106.729 116.392 105.424 117.495 104.314C118.444 103.264 119.931 102.889 121.265 103.367C121.718 103.529 122.188 103.648 122.641 103.81C125.556 104.903 128.762 104.954 131.703 103.947C134.669 102.906 137.063 101.13 138.14 97.9725C139.38 94.4305 139.533 90.5983 138.559 86.971C138.08 85.5115 138.473 83.9155 139.576 82.8401C140.089 82.3024 140.662 81.8244 141.286 81.4233C144.287 79.4859 147.715 78.2824 151.271 77.9154C153.622 77.6252 154.887 78.419 155.785 80.621C155.785 80.6722 155.785 80.7234 155.845 80.7746C157.306 84.1203 159.529 86.7491 163 88.0891C169.198 90.3508 176.08 87.2953 178.55 81.1843C179.003 80.1601 179.696 79.2554 180.568 78.547C181.081 78.1032 181.739 77.8727 182.414 77.8983C184.586 77.9922 186.731 78.4617 188.74 79.2895C191.177 80.1772 193.331 81.6879 194.998 83.668C195.981 84.7263 196.255 86.2626 195.699 87.594C195.614 87.8159 195.537 88.0464 195.443 88.2683C194.87 89.54 194.528 90.8971 194.417 92.2883C193.947 96.9313 196.297 101.404 200.401 103.648C204.419 105.739 208.522 105.355 212.54 103.554C214.07 102.761 215.934 103.059 217.139 104.288C217.763 104.92 218.311 105.628 218.772 106.388C220.499 109.375 221.585 112.678 221.969 116.101C222.311 117.995 221.226 119.856 219.405 120.496C217.088 121.392 215.045 122.86 213.463 124.764C209.257 129.782 209.916 137.25 214.942 141.45C215.874 142.226 216.909 142.858 218.028 143.319C218.764 143.634 219.448 144.053 220.055 144.565C221.2 145.435 221.833 146.809 221.764 148.243C221.645 152.127 220.285 155.865 217.875 158.912C216.302 160.935 213.617 161.737 211.189 160.901C208.556 159.945 205.71 159.731 202.957 160.278C201.239 160.508 199.614 161.208 198.272 162.309C197.016 163.444 196.024 164.835 195.349 166.389C193.989 169.709 194.075 173.447 195.579 176.707C195.879 177.424 196.024 178.184 196.015 178.961C195.964 180.335 195.263 181.598 194.126 182.375C190.937 184.833 187.116 186.36 183.107 186.77C182.2 186.915 181.277 186.693 180.542 186.147C179.756 185.524 179.149 184.713 178.764 183.791C177.986 181.871 176.823 180.13 175.344 178.67C171.677 174.889 165.855 174.198 161.401 177.015C158.811 178.619 156.811 181.009 155.691 183.843C155.178 185.345 153.853 186.429 152.271 186.616C151.579 186.736 150.869 186.744 150.168 186.659C147.082 186.198 144.099 185.183 141.38 183.646C140.012 182.929 138.773 181.982 137.73 180.847C136.687 179.806 136.353 178.244 136.875 176.869C137.123 176.153 137.448 175.461 137.73 174.761C139.491 170.545 138.508 165.689 135.242 162.488C134.293 161.558 133.113 160.892 131.822 160.559C128.762 159.791 125.548 159.894 122.538 160.841C119.82 161.635 117.845 160.926 116.306 158.545C115.033 156.625 114.075 154.517 113.477 152.297C113.152 151.068 112.947 149.805 112.69 148.559V147.782C112.69 147.586 112.767 147.39 112.793 147.194C112.878 145.623 113.887 144.258 115.357 143.711C118.05 142.602 120.384 140.758 122.094 138.403C125.146 134.476 124.983 128.937 121.709 125.19C119.974 123.142 117.777 121.546 115.289 120.53C114.468 120.163 113.827 119.489 113.494 118.661C113.186 118.064 113.007 117.398 112.793 116.758ZM192.792 132.121C192.75 118.072 181.311 106.721 167.24 106.764C153.169 106.806 141.799 118.226 141.842 132.274C141.884 146.263 153.237 157.598 167.249 157.632C181.311 157.674 192.75 146.323 192.792 132.283C192.792 132.24 192.792 132.198 192.792 132.155V132.121Z" fill="#336B6B"/>
</g>
<defs>
<linearGradient id="paint0_linear_3_84" x1="219.511" y1="240.155" x2="142.838" y2="243.58" gradientUnits="userSpaceOnUse">
<stop stop-opacity="0"/>
<stop offset="0.95"/>
</linearGradient>
<linearGradient id="paint1_linear_3_84" x1="222.543" y1="224.595" x2="125.87" y2="211.855" gradientUnits="userSpaceOnUse">
<stop stop-opacity="0"/>
<stop offset="0.95"/>
</linearGradient>
<linearGradient id="paint2_linear_3_84" x1="260.182" y1="231.982" x2="100.878" y2="228.039" gradientUnits="userSpaceOnUse">
<stop stop-opacity="0"/>
<stop offset="0.95"/>
</linearGradient>
<linearGradient id="paint3_linear_3_84" x1="241.659" y1="231.923" x2="334.055" y2="231.178" gradientUnits="userSpaceOnUse">
<stop stop-opacity="0"/>
<stop offset="0.95"/>
</linearGradient>
<linearGradient id="paint4_linear_3_84" x1="171.739" y1="223.512" x2="157.166" y2="250.843" gradientUnits="userSpaceOnUse">
<stop stop-opacity="0"/>
<stop offset="0.95"/>
</linearGradient>
<linearGradient id="paint5_linear_3_84" x1="104.614" y1="216.59" x2="107.017" y2="275.848" gradientUnits="userSpaceOnUse">
<stop stop-opacity="0"/>
<stop offset="0.95"/>
</linearGradient>
<clipPath id="clip0_3_84">
<rect width="327" height="272" fill="white"/>
</clipPath>
</defs>
</svg>
