<svg width="327" height="268" viewBox="0 0 327 268" fill="none" xmlns="http://www.w3.org/2000/svg">
<g clip-path="url(#clip0_141_2705)">
<path opacity="0.42" d="M325.213 162.294C322.784 176.956 317.75 191.059 310.338 203.952C279.908 256.532 208.534 262.366 153.489 266.689C140.678 267.699 127.778 268.703 114.999 267.348C86.8594 264.361 60.935 249.976 39.5662 231.487C23.2439 217.371 8.76524 200.119 2.71831 179.415C-3.32863 158.712 0.515989 134.245 16.2909 119.558C17.8388 118.121 19.4685 116.772 21.1737 115.53C31.9084 107.707 45.2419 103.61 57.1218 97.3365C60.9476 95.3603 64.5845 93.0327 67.9824 90.3978C86.4315 75.8365 93.567 51.206 109.222 33.6898C134.864 4.9876 184.271 -9.60503 220.207 6.98264C229.098 11.0856 235.478 18.1122 243.57 22.8175C253.707 28.7022 264.668 32.0712 274.402 39.0789C293.909 53.0944 309.507 72.5742 318.361 94.9149C323.898 108.993 326.818 123.962 326.981 139.082C327.088 146.855 326.497 154.622 325.213 162.294Z" fill="#336B6B"/>
<path opacity="0.42" d="M325.213 162.294C322.784 176.956 317.75 191.059 310.338 203.952C279.908 256.532 208.534 262.366 153.489 266.689C140.678 267.699 127.778 268.703 114.999 267.348C86.8594 264.361 60.935 249.976 39.5662 231.487C23.2439 217.371 8.76524 200.119 2.71831 179.415C-3.32863 158.712 0.515989 134.245 16.2909 119.558C17.8388 118.121 19.4685 116.772 21.1737 115.53C31.9084 107.707 45.2419 103.61 57.1218 97.3364C62.9108 99.8459 68.6871 102.311 74.8536 103.497C91.3521 106.678 108.26 100.097 125.029 101.182C139.205 102.104 152.388 108.41 165.268 114.357C200.209 130.568 238.121 145.443 276.284 140.016C287.245 138.454 298.093 135.217 309.142 135.719C315.221 135.995 321.098 137.388 326.987 139.063C327.094 146.842 326.503 154.615 325.213 162.294Z" fill="#336B6B"/>
<path opacity="0.42" d="M325.213 162.294C322.784 176.956 317.75 191.059 310.338 203.952C279.908 256.532 208.534 262.366 153.489 266.689C140.678 267.699 127.778 268.703 114.999 267.348C86.8594 264.361 60.935 249.976 39.5662 231.487C23.2439 217.371 8.76524 200.119 2.71831 179.415C-3.32863 158.712 0.515989 134.245 16.2909 119.558C17.8388 118.121 19.4685 116.772 21.1737 115.53C31.059 113.472 41.3029 113.943 50.9553 116.904C59.1794 119.527 66.768 124.119 75.2437 125.75C89.024 128.404 103.138 122.914 117.138 123.824C128.98 124.583 139.986 129.853 150.739 134.841C179.923 148.379 211.58 160.801 243.444 156.265C252.599 154.96 261.654 152.263 270.891 152.683C280.607 153.116 289.768 156.974 299.207 159.371C307.701 161.529 316.448 162.514 325.213 162.294Z" fill="#336B6B"/>
<path d="M62.1054 197.992C62.9737 198.839 64.0749 199.41 64.9873 200.213C70.6504 205.181 66.2961 214.855 69.2723 221.763C72.2927 228.771 81.3914 230.395 89.0303 230.64C117.881 231.581 147.064 226.951 175.455 232.114C183.793 233.633 192.313 235.992 200.625 234.216C204.727 233.344 208.553 231.487 212.58 230.232C231.898 224.184 253.946 232.466 272.641 224.718C268.066 209.385 277.901 193.443 277.674 177.439C277.75 176.322 277.492 175.212 276.945 174.233C275.906 172.715 273.798 172.414 271.992 172.276C237.208 169.697 202.412 176.172 167.54 176.724C146.259 177.056 124.978 175.231 103.704 176.241C93.0574 176.749 82.4107 177.96 72.0598 180.563C67.3658 181.737 63.8232 182.069 61.5517 186.429C59.7017 189.83 59.1291 195.118 62.1054 197.992Z" fill="#336B6B"/>
<path d="M109.782 105.085C106.636 107.255 104.686 110.693 102.823 114.012L67.8566 176.379C69.6625 178.669 72.5947 179.716 75.4074 180.557C100.577 188.086 127.401 187.766 153.659 186.461C163.569 185.971 173.467 185.35 183.365 184.729C189.865 184.328 196.365 183.92 202.871 183.387C221.817 181.831 240.663 179.202 259.307 175.513C264.102 174.566 270.042 172.194 269.941 167.32C269.903 165.438 268.853 163.693 267.821 162.087C255.865 143.492 242.33 126.001 228.808 108.548C228.166 107.613 227.367 106.791 226.436 106.139C225.177 105.348 223.579 105.21 222.069 105.103C191.444 102.845 160.713 102.368 130.031 103.679C124.286 103.949 114.609 101.728 109.782 105.085Z" fill="#336B6B"/>
<path opacity="0.58" d="M109.782 105.085C106.636 107.255 104.686 110.693 102.823 114.012L67.8566 176.379C69.6625 178.669 72.5947 179.716 75.4074 180.557C100.577 188.086 127.401 187.766 153.659 186.461C163.569 185.971 173.467 185.35 183.365 184.729C189.865 184.328 196.365 183.92 202.871 183.387C221.817 181.831 240.663 179.202 259.307 175.513C264.102 174.566 270.042 172.194 269.941 167.32C269.903 165.438 268.853 163.693 267.821 162.087C255.865 143.492 242.33 126.001 228.808 108.548C228.166 107.613 227.367 106.791 226.436 106.139C225.177 105.348 223.579 105.21 222.069 105.103C191.444 102.845 160.713 102.368 130.031 103.679C124.286 103.949 114.609 101.728 109.782 105.085Z" fill="url(#paint0_linear_141_2705)"/>
<path d="M178.702 89.5194C178.52 88.1078 178.381 86.3826 179.634 85.6046C180.886 84.8267 182.415 85.4415 183.843 85.7238C186.454 86.232 189.11 85.6297 191.677 85.0965C200.77 83.2645 210.026 82.4113 219.3 82.5493C219.716 82.5305 220.131 82.587 220.521 82.7187C222.006 83.3461 221.666 85.3098 221.15 86.6837C217.74 95.5045 216.985 105.128 218.973 114.376C219.181 115.355 219.344 116.547 218.514 117.149C217.872 117.488 217.13 117.594 216.419 117.45L181.521 114.457C179.508 114.282 175.575 113.937 174.877 111.634C174.398 110.06 176.261 107.87 176.802 106.427C178.809 101.032 179.464 95.2222 178.702 89.5194Z" fill="#336B6B"/>
<path opacity="0.58" d="M178.702 89.5194C178.52 88.1078 178.381 86.3826 179.634 85.6046C180.886 84.8267 182.415 85.4415 183.843 85.7238C186.454 86.232 189.11 85.6297 191.677 85.0965C200.77 83.2645 210.026 82.4113 219.3 82.5493C219.716 82.5305 220.131 82.587 220.521 82.7187C222.006 83.3461 221.666 85.3098 221.15 86.6837C217.74 95.5045 216.985 105.128 218.973 114.376C219.181 115.355 219.344 116.547 218.514 117.149C217.872 117.488 217.13 117.594 216.419 117.45L181.521 114.457C179.508 114.282 175.575 113.937 174.877 111.634C174.398 110.06 176.261 107.87 176.802 106.427C178.809 101.032 179.464 95.2222 178.702 89.5194Z" fill="url(#paint1_linear_141_2705)"/>
<path d="M122.348 83.6096C121.901 83.3586 121.354 83.3586 120.907 83.6096C120.731 83.779 120.611 83.9986 120.567 84.237C120.221 85.6987 120.995 87.1731 121.121 88.6662C121.153 89.7453 121.027 90.8181 120.737 91.8595C119.831 96.1319 119.315 100.473 119.196 104.834C119.152 106.596 119.164 108.397 118.566 110.053C118.183 111.107 117.572 112.293 118.12 113.272C118.667 114.25 120.165 114.338 121.367 114.357C123.009 114.382 124.645 114.646 126.212 115.147C127.69 115.618 129.15 116.302 130.704 116.327C131.774 116.296 132.837 116.101 133.851 115.756L138.759 114.351C140.709 113.849 142.628 113.221 144.497 112.469C145.806 111.904 147.064 111.214 148.392 110.687C150.072 110.009 151.847 109.602 153.571 109.031C155.628 108.309 157.648 107.468 159.611 106.521C160.001 106.383 160.341 106.132 160.593 105.806C160.731 105.536 160.801 105.235 160.801 104.934C160.901 102.964 160.285 101.019 160.171 99.0492C160.058 96.6589 160.719 94.3063 161.197 91.9599C161.524 90.3664 161.669 88.4403 160.423 87.3926C159.46 86.7276 158.233 86.5645 157.132 86.9598C156.018 87.2734 155.012 87.8694 153.917 88.2145C151.331 89.0677 148.512 88.5721 145.831 88.0576C142.207 87.355 138.557 86.3826 134.901 85.9183C132.542 85.6172 130.276 86.0752 127.923 85.5231C126.029 84.9835 124.167 84.3499 122.348 83.6096Z" fill="#336B6B"/>
<path opacity="0.58" d="M122.348 83.6096C121.901 83.3586 121.354 83.3586 120.907 83.6096C120.731 83.779 120.611 83.9986 120.567 84.237C120.221 85.6987 120.995 87.1731 121.121 88.6662C121.153 89.7453 121.027 90.8181 120.737 91.8595C119.831 96.1319 119.315 100.473 119.196 104.834C119.152 106.596 119.164 108.397 118.566 110.053C118.183 111.107 117.572 112.293 118.12 113.272C118.667 114.25 120.165 114.338 121.367 114.357C123.009 114.382 124.645 114.646 126.212 115.147C127.69 115.618 129.15 116.302 130.704 116.327C131.774 116.296 132.837 116.101 133.851 115.756L138.759 114.351C140.709 113.849 142.628 113.221 144.497 112.469C145.806 111.904 147.064 111.214 148.392 110.687C150.072 110.009 151.847 109.602 153.571 109.031C155.628 108.309 157.648 107.468 159.611 106.521C160.001 106.383 160.341 106.132 160.593 105.806C160.731 105.536 160.801 105.235 160.801 104.934C160.901 102.964 160.285 101.019 160.171 99.0492C160.058 96.6589 160.719 94.3063 161.197 91.9599C161.524 90.3664 161.669 88.4403 160.423 87.3926C159.46 86.7276 158.233 86.5645 157.132 86.9598C156.018 87.2734 155.012 87.8694 153.917 88.2145C151.331 89.0677 148.512 88.5721 145.831 88.0576C142.207 87.355 138.557 86.3826 134.901 85.9183C132.542 85.6172 130.276 86.0752 127.923 85.5231C126.029 84.9835 124.167 84.3499 122.348 83.6096Z" fill="url(#paint2_linear_141_2705)"/>
<path d="M143.874 86.759C143.874 86.759 157.283 78.6534 160.864 77.3485C164.444 76.0435 165.205 88.1079 165.205 88.1079C165.205 88.1079 164.576 101.094 165.432 102.537C166.288 103.98 156.497 99.9589 156.497 99.9589L158.114 87.3738C158.114 87.3738 150.922 88.6976 149.638 89.7014C148.354 90.7052 143.346 89.7516 143.465 88.1957C143.585 86.6398 143.874 86.759 143.874 86.759Z" fill="#FCC5A7"/>
<path d="M137.739 105.072C138.249 105.938 138.463 106.948 138.331 107.945C138.18 109.112 137.569 110.173 137.248 111.302C136.764 113.071 136.99 114.959 137.878 116.565C138.551 117.776 139.57 118.774 140.218 119.997C140.552 120.549 140.69 121.189 140.615 121.829C140.47 122.199 140.395 122.594 140.395 122.996C140.508 123.623 141.269 123.912 141.917 124.006C143.994 124.301 146.108 123.937 147.971 122.971C150.865 121.465 152.822 118.686 154.892 116.195C156.962 113.705 159.605 111.264 162.852 110.944C163.72 110.925 164.582 110.856 165.444 110.75C166.319 110.631 167.068 110.072 167.426 109.269C167.571 108.711 167.571 108.121 167.426 107.563C167.294 106.86 167.156 106.164 167.011 105.467C166.898 104.708 166.64 103.98 166.25 103.322C165.3 101.935 163.45 101.584 161.902 100.913C160.052 100.11 158.435 98.7042 156.446 98.3529C154.458 98.0016 152.583 98.7356 150.865 99.6515C149.147 100.567 147.543 101.716 145.705 102.349C144.378 102.751 143.081 103.24 141.823 103.817C140.533 104.445 139.155 104.865 137.739 105.072Z" fill="#336B6B"/>
<path d="M130.906 97.3491C129.226 95.9939 127.634 94.2561 127.426 92.1168C127.363 91.0126 127.546 89.9147 127.961 88.8921C128.483 87.468 129.383 85.9937 130.862 85.6235C131.522 85.5984 132.145 85.3161 132.598 84.8393C133.416 84.3311 134.379 84.099 135.342 84.1743C138.821 84.2119 142.182 85.4479 144.856 87.6687C145.932 88.5722 146.92 89.645 148.229 90.1782C149.342 90.5107 150.494 90.724 151.652 90.8056C153.338 91.0816 155.037 91.8596 155.93 93.3151C156.629 94.4757 156.767 95.8873 156.295 97.1546C155.811 98.4156 154.817 99.4068 153.558 99.8962C152.929 100.147 152.224 100.26 151.582 100.524C150.922 100.831 150.292 101.195 149.695 101.609C147.09 103.209 144.082 104.024 141.131 104.815C140.457 105.041 139.746 105.135 139.035 105.097C137.852 104.859 136.827 104.118 136.235 103.071C135.606 102.079 135.159 100.95 134.536 99.9338C133.46 98.196 131.831 96.8723 129.912 96.1696" fill="#403C58"/>
<path opacity="0.58" d="M130.906 97.3491C129.226 95.9939 127.634 94.2561 127.426 92.1168C127.363 91.0126 127.546 89.9147 127.961 88.8921C128.483 87.468 129.383 85.9937 130.862 85.6235C131.522 85.5984 132.145 85.3161 132.598 84.8393C133.416 84.3311 134.379 84.099 135.342 84.1743C138.821 84.2119 142.182 85.4479 144.856 87.6687C145.932 88.5722 146.92 89.645 148.229 90.1782C149.342 90.5107 150.494 90.724 151.652 90.8056C153.338 91.0816 155.037 91.8596 155.93 93.3151C156.629 94.4757 156.767 95.8873 156.295 97.1546C155.811 98.4156 154.817 99.4068 153.558 99.8962C152.929 100.147 152.224 100.26 151.582 100.524C150.922 100.831 150.292 101.195 149.695 101.609C147.09 103.209 144.082 104.024 141.131 104.815C140.457 105.041 139.746 105.135 139.035 105.097C137.852 104.859 136.827 104.118 136.235 103.071C135.606 102.079 135.159 100.95 134.536 99.9338C133.46 98.196 131.831 96.8723 129.912 96.1696" fill="url(#paint3_linear_141_2705)"/>
<path d="M129.553 94.5384C130.314 97.2675 132.454 99.4256 134.82 100.988C135.656 101.577 136.581 102.035 137.563 102.349C138.513 102.512 139.444 102.788 140.338 103.158C141.093 103.579 141.647 104.281 142.377 104.733C143.729 105.586 145.523 105.461 147.014 104.921C147.826 104.664 148.562 104.225 149.166 103.629C149.776 103.027 150.091 102.186 150.028 101.333C149.864 100.542 149.5 99.8083 148.971 99.1998L146.863 96.3013C146.165 95.3414 145.435 94.2937 145.454 93.108C145.454 92.2046 145.938 91.3388 145.875 90.4291C145.781 89.1367 144.654 88.1643 143.358 88.2584C142.962 88.2898 142.584 88.4153 142.251 88.6286C142.081 88.7854 141.854 88.8795 141.622 88.8858C141.496 88.8482 141.376 88.7917 141.275 88.7039C139.948 87.5683 138.412 86.6963 136.751 86.1379C131.919 84.8455 128.345 90.2221 129.553 94.5384Z" fill="#FCC5A7"/>
<path d="M133.744 105.204C133.423 105.229 133.102 105.298 132.8 105.417C132.441 105.599 132.12 105.844 131.862 106.151C131.359 106.691 130.925 107.299 130.566 107.945C130.094 108.805 129.761 109.733 129.364 110.631C127.885 113.974 125.463 116.86 124.198 120.292C124.072 120.599 123.997 120.932 123.978 121.264C124.016 121.754 124.198 122.218 124.513 122.601C125.771 124.307 127.974 125.066 130.088 125.28C130.793 125.349 131.497 125.355 132.202 125.311C135.864 125.035 139.124 122.877 141.88 120.474C144.636 118.071 147.171 115.317 150.33 113.447C152.256 112.368 154.294 111.503 156.415 110.875C156.774 110.794 157.113 110.624 157.403 110.392C157.692 110.147 157.787 109.74 157.623 109.395C157.466 109.188 157.245 109.043 156.994 108.974C153.848 107.858 150.374 108.152 147.467 109.79C146.8 110.242 146.077 110.599 145.315 110.856C145.082 110.894 144.856 110.95 144.636 111.019C144.145 111.277 143.711 111.641 143.377 112.08C141.414 114.144 138.538 115.022 135.826 115.844C135.984 114.363 136.43 112.92 137.141 111.609C137.701 110.781 138.129 109.871 138.4 108.912C138.564 108.014 138.4 106.12 137.695 105.423C136.99 104.727 134.687 105.097 133.744 105.204Z" fill="#FCC5A7"/>
<path d="M94.9639 130.813C102.76 130.066 109.524 124.144 117.352 124.257C120.335 124.295 123.223 125.229 126.161 125.675C132.982 126.691 139.942 125.123 145.668 121.283C148.008 119.571 150.255 117.732 152.388 115.775C156.314 112.425 160.801 109.313 165.941 108.811C175.437 107.889 183.925 116.038 193.452 115.574C198.246 115.342 202.72 112.92 207.515 112.594C209.403 112.462 211.429 112.713 212.895 113.912C214.361 115.11 214.978 117.456 213.795 118.931C212.291 120.813 236.447 116.729 238.586 117.801C244.583 120.775 238.838 122.262 245.376 123.736C251.083 125.029 247.956 125.336 251.92 129.627C243.702 131.39 284.583 174.967 276.24 175.99C264.914 177.376 246.76 186.417 235.409 185.175C230.973 184.692 226.411 184.635 222.132 185.896C219.238 186.749 212.643 182.176 209.824 183.249C196.497 188.343 79.3086 190.15 65.39 187.013C51.679 183.92 83.4175 143.555 89.6029 134.232C90.1755 132.337 93.0259 131.001 94.9639 130.813Z" fill="#336B6B"/>
<path opacity="0.58" d="M94.9639 130.813C102.76 130.066 109.524 124.144 117.352 124.257C120.335 124.295 123.223 125.229 126.161 125.675C132.982 126.691 139.942 125.123 145.668 121.283C148.008 119.571 150.255 117.732 152.388 115.775C156.314 112.425 160.801 109.313 165.941 108.811C175.437 107.889 183.925 116.038 193.452 115.574C198.246 115.342 202.72 112.92 207.515 112.594C209.403 112.462 211.429 112.713 212.895 113.912C214.361 115.11 214.978 117.456 213.795 118.931C212.291 120.813 236.447 116.729 238.586 117.801C244.583 120.775 238.838 122.262 245.376 123.736C251.083 125.029 247.956 125.336 251.92 129.627C243.702 131.39 284.583 174.967 276.24 175.99C264.914 177.376 246.76 186.417 235.409 185.175C230.973 184.692 226.411 184.635 222.132 185.896C219.238 186.749 212.643 182.176 209.824 183.249C196.497 188.343 79.3086 190.15 65.39 187.013C51.679 183.92 83.4175 143.555 89.6029 134.232C90.1755 132.337 93.0259 131.001 94.9639 130.813Z" fill="url(#paint4_linear_141_2705)"/>
<path d="M168.062 119.765C170.195 120.355 172.265 121.145 174.354 121.804C176.871 122.594 179.59 123.203 182.195 122.67C184.453 122.212 186.517 120.919 188.814 120.737C192.313 120.461 195.673 122.826 199.146 122.343C201.795 121.986 204.073 120.016 206.741 119.941C209.717 119.853 212.763 120.242 215.789 120.166L225.272 119.934C228.078 119.796 230.885 119.865 233.678 120.141C235.717 120.392 238.001 120.813 239.656 119.596C239.795 119.508 239.902 119.37 239.939 119.213C239.933 119.062 239.876 118.912 239.776 118.799C238.63 117.193 237.07 115.932 235.258 115.154C233.043 114.213 230.589 114.062 228.185 113.899L211.448 112.933C210.038 112.851 209.371 112.343 208.188 111.829C207.188 111.39 206.156 111.477 205.042 111.49C202.393 111.49 199.744 111.622 197.095 111.709C191.734 111.879 186.297 111.992 181.005 110.969C177.287 110.248 173.788 108.66 170.082 107.876C165.677 106.941 161.593 109.075 157.296 110.505C150.185 112.87 144.579 117.563 137.909 120.693C134.543 122.274 130.755 123.203 127.074 122.613C124.884 122.268 122.776 121.415 120.561 121.302C118.189 121.183 115.873 121.929 113.64 122.676C106.668 124.991 99.7461 127.463 92.8749 130.091C93.0448 131.603 95.1338 131.879 96.6503 131.672C107.448 130.223 117.786 125.719 128.678 125.449C130.849 125.399 133.033 125.512 135.191 125.298C140.816 124.74 144.529 120.938 149.695 119.652C155.723 118.109 162.053 118.153 168.062 119.765Z" fill="white"/>
<path opacity="0.58" d="M162.386 161.196C151.532 157.878 141.15 152.733 129.911 151.159C117.289 149.364 104.49 152.169 92.1889 155.55C83.3797 157.953 74.1173 160.983 68.2781 167.991C65.3773 171.473 63.5399 175.695 61.7466 179.854C61.2621 180.971 60.7776 182.251 61.281 183.355C61.6837 184.07 62.294 184.641 63.0303 185.005C70.4237 189.441 79.4595 189.961 88.0863 190.118C109.04 190.513 129.993 189.491 150.928 188.506C164.142 187.879 177.356 187.251 190.374 184.974C201.336 183.092 212.196 179.999 223.327 179.955C226.933 179.955 230.601 180.256 234.087 179.327C237.573 178.399 240.933 175.915 241.6 172.382C241.795 171.655 241.701 170.877 241.336 170.212C240.776 169.553 240.002 169.108 239.153 168.957C227.443 165.538 214.883 163.907 202.84 165.149C189.223 166.535 175.468 165.193 162.386 161.196Z" fill="url(#paint5_linear_141_2705)"/>
<path opacity="0.58" d="M225.096 129.326C219.842 129.144 214.355 129.006 209.598 131.24C207.018 132.45 204.778 134.314 202.129 135.361C199.259 136.503 196.101 136.616 193.017 136.729L159.423 137.877C157.598 137.94 155.301 138.366 154.88 140.136C160.499 144.101 166.464 147.865 173.184 149.371C177.935 150.431 182.849 150.305 187.713 150.161C204.702 149.672 222.396 149.201 237.863 156.234C245.974 159.917 253.399 165.645 262.214 166.899C262.931 167.081 263.693 167 264.36 166.673C265.681 165.826 265.165 163.794 264.36 162.451C260.339 155.738 252.788 151.121 250.674 143.592C249.265 138.574 250.007 132.3 244.193 130.06C238.97 128.071 230.557 129.514 225.096 129.326Z" fill="url(#paint6_linear_141_2705)"/>
<path opacity="0.58" d="M125.394 130.411C121.618 130.455 117.906 129.665 114.149 129.602C110.204 129.633 106.278 130.16 102.458 131.164C97.1977 132.419 91.5472 134.351 88.7534 138.969C94.4857 139.351 99.7524 136.039 105.365 134.816C111.897 133.385 118.68 134.816 125.205 136.277C125.482 138.065 123.135 138.962 121.335 139.182L102.615 141.522C104.616 143.862 108.216 143.756 111.286 143.448L127.149 141.873C128.968 141.597 130.818 141.597 132.636 141.873C133.939 142.187 135.203 142.645 136.412 143.229L157.088 152.426C162.424 154.797 168.068 157.225 173.882 156.629C163.412 148.931 150.689 144.784 140.067 137.294C139.646 137.068 139.325 136.685 139.186 136.227C139.079 135.6 139.614 135.066 140.118 134.678C144.774 131.07 150.676 129.357 156.541 128.724C162.405 128.09 168.326 128.473 174.228 128.623C180.804 128.787 187.379 128.667 193.955 128.26C195.283 128.178 197.101 127.525 196.793 126.227C196.472 124.771 163.286 124.263 159.668 124.188C147.687 123.931 137.135 130.298 125.394 130.411Z" fill="url(#paint7_linear_141_2705)"/>
<path opacity="0.58" d="M81.7374 200.288C77.5781 198.989 72.0157 198.218 69.7819 201.957C68.6682 203.839 68.9199 206.191 69.2093 208.362C69.9141 213.62 71.0593 219.592 75.6149 222.34C77.2006 223.199 78.9184 223.789 80.6991 224.078C87.0292 225.376 133.781 230.828 134.65 221.135C135.216 214.893 88.4513 202.377 81.7374 200.288Z" fill="url(#paint8_linear_141_2705)"/>
<path opacity="0.58" d="M231.652 203.632C233.653 201.285 235.679 198.914 238.234 197.182C240.996 195.3 244.243 194.29 247.459 193.418C255.286 191.235 263.265 189.635 271.325 188.631C272.892 191.229 271.904 194.623 270.369 197.239C268.834 199.855 266.751 202.258 266.059 205.213C264.901 210.144 267.67 216.148 264.341 219.981C262.736 221.863 260.163 222.49 257.747 222.917C251.926 223.959 245.999 224.31 240.097 223.952C235.239 223.664 223.485 225.997 221.597 220.357C219.59 214.366 228.342 207.521 231.652 203.632Z" fill="url(#paint9_linear_141_2705)"/>
<path opacity="0.58" d="M181.804 214.95C183.302 216.154 184.875 217.396 186.763 217.785C188.411 218.124 190.249 217.785 191.715 218.626C192.357 219.04 192.923 219.555 193.389 220.157C195.736 222.867 197.9 225.722 199.876 228.714C197.68 230.552 194.521 230.828 191.696 230.245C188.871 229.661 186.303 228.363 183.635 227.296C174.09 223.532 163.5 223.068 153.879 219.429C150.229 217.961 146.681 216.273 143.245 214.366L112.765 198.23C113.583 195.413 116.484 193.606 119.384 193.136C122.285 192.665 125.249 193.255 128.15 193.763C135.751 195.037 143.453 195.601 151.161 195.438C157.453 195.313 161.266 195.884 165.042 200.827C169.302 206.367 176.361 210.602 181.804 214.95Z" fill="url(#paint10_linear_141_2705)"/>
<path d="M180.666 17.8675C174.197 22.1336 172.737 30.8164 171.856 38.4954C167.81 39.8631 163.154 39.3235 159.473 41.4817C155.2 43.9912 153.577 49.3426 153.181 54.2675C153.181 55.2274 152.986 56.181 152.602 57.0593C151.557 59.0292 148.94 59.3994 146.718 59.6189C141.596 60.1334 135.864 61.6203 133.442 66.1436C132.542 67.825 132.246 69.9706 133.228 71.608C134.769 74.1739 138.419 74.2743 141.408 73.8728C148.38 72.9255 155.169 70.9242 161.543 67.9442C165.142 66.2628 168.729 64.2239 172.699 63.9541C176.412 63.7094 180.017 65.0332 183.579 66.0997C189.695 67.9253 196.006 69.0232 202.38 69.3683C206.886 69.613 211.479 69.4624 215.783 68.1135C220.087 66.7647 224.108 64.1046 226.379 60.2212C227.512 63.722 230.828 66.1687 234.352 67.2478C237.875 68.3269 241.645 68.2453 245.332 68.1637C249.548 68.0634 254.066 67.8626 257.432 65.328C260.106 63.3079 261.604 60.1083 262.743 56.9589C263.554 54.9764 264.001 52.8622 264.045 50.7228C263.882 44.2484 257.847 39.6937 252.411 36.1553C248.403 33.5454 244.105 30.8478 239.316 30.7725C236.894 30.7348 234.358 31.3998 232.099 30.4776C228.185 28.9343 227.311 23.9467 225.303 20.2515C222.226 14.6051 215.726 11.4683 209.327 10.59C207.018 10.2198 204.665 10.339 202.406 10.9413C199.744 11.7255 199.064 13.8272 197.013 14.8937C194.962 15.9603 191.167 15.0004 188.871 15.2388C185.957 15.4333 183.145 16.3367 180.666 17.8675Z" fill="white"/>
<path d="M216.664 43.5019C216.997 42.6863 217.482 41.9397 218.092 41.2998C216.834 44.0414 215.525 46.8708 215.361 49.8885C215.267 51.6765 215.582 53.4708 215.556 55.2651C215.575 55.6101 215.5 55.9489 215.343 56.2563C215.16 56.5637 214.776 56.6892 214.449 56.5449C214.021 56.2877 214.493 54.3366 214.487 53.9099C214.468 52.7242 214.537 51.5448 214.688 50.3716C215.003 47.9938 215.67 45.6788 216.664 43.5019Z" fill="#336B6B"/>
<path opacity="0.42" d="M221.05 42.4668C221.062 43.0941 221.163 43.7152 221.345 44.3112C221.446 44.9323 221.459 45.566 221.389 46.1933C221.402 46.8583 221.131 47.4983 220.641 47.95C220.156 48.2448 219.539 48.2448 219.055 47.95C218.577 47.6488 218.206 47.2097 217.979 46.6952C217.211 45.0954 217.337 43.2133 218.306 41.7265C218.124 42.1468 217.809 42.4918 217.413 42.724C216.664 43.3137 215.852 43.8093 214.984 44.1983C214.115 44.5935 213.128 44.6625 212.209 44.3928C211.982 44.33 211.781 44.2046 211.636 44.0226C211.517 43.803 211.466 43.5584 211.479 43.3074C211.448 42.931 211.485 42.5546 211.592 42.1907C211.75 41.8268 211.97 41.4943 212.253 41.212C212.568 40.8105 212.945 40.4654 213.373 40.1831C213.933 39.9134 214.543 39.7565 215.166 39.7251C215.582 39.6624 216.003 39.6248 216.425 39.6185C215.11 39.3738 213.964 38.5771 213.279 37.4352C212.649 36.2809 212.844 34.5933 213.977 33.8969C215.11 33.2005 216.494 33.6585 217.356 34.5242C218.18 35.4465 218.772 36.5506 219.074 37.7489C218.923 36.72 219.118 35.6661 219.621 34.7564C219.986 34.0035 220.565 33.2319 221.396 33.1503C222.459 33.0437 223.283 34.198 223.283 35.2645C223.145 36.3248 222.711 37.3286 222.025 38.1504C222.522 37.5984 223.151 37.178 223.85 36.9333C224.485 36.6322 225.184 36.4816 225.888 36.4879C226.599 36.5067 227.254 36.8894 227.619 37.498C228.11 38.4579 227.462 39.6812 226.511 40.2019C225.523 40.6348 224.441 40.8105 223.365 40.7101C224.265 41.0803 225.039 41.6888 225.612 42.473C226.172 43.2949 226.052 44.4053 225.328 45.0892C224.756 45.4719 224.026 45.522 223.409 45.2272C222.805 44.926 222.283 44.4743 221.905 43.916C221.547 43.4768 221.264 42.9875 221.05 42.4668Z" fill="#336B6B"/>
<path d="M219.47 42.7867C220.937 42.7867 222.126 41.6014 222.126 40.1392C222.126 38.677 220.937 37.4917 219.47 37.4917C218.004 37.4917 216.815 38.677 216.815 40.1392C216.815 41.6014 218.004 42.7867 219.47 42.7867Z" fill="#336B6B"/>
<path d="M201.908 42.3976C202.173 41.7577 202.55 41.1743 203.028 40.6724C202.028 42.8305 201.009 45.064 200.883 47.4166C200.807 48.8282 201.053 50.2335 201.034 51.6451C201.053 51.9148 200.996 52.1846 200.864 52.423C200.725 52.6677 200.423 52.7681 200.165 52.6551C199.832 52.4481 200.203 50.9173 200.197 50.5848C200.184 49.6563 200.235 48.7215 200.354 47.7993C200.6 45.9297 201.122 44.1104 201.908 42.3976Z" fill="#336B6B"/>
<path opacity="0.42" d="M205.357 41.5759C205.363 42.0715 205.438 42.5608 205.589 43.0314C205.665 43.527 205.678 44.0289 205.621 44.5245C205.634 45.0452 205.42 45.5471 205.029 45.8985C204.646 46.1369 204.155 46.1369 203.771 45.8985C203.4 45.6601 203.11 45.3213 202.928 44.9198C202.324 43.665 202.424 42.1844 203.186 41.0175C203.041 41.3437 202.789 41.6198 202.481 41.8017C201.902 42.2597 201.267 42.6549 200.593 42.9624C199.907 43.2698 199.134 43.3262 198.41 43.1129C198.234 43.0627 198.076 42.9624 197.963 42.8181C197.869 42.6487 197.825 42.4542 197.837 42.2597C197.812 41.9648 197.844 41.6637 197.925 41.3814C198.051 41.0991 198.227 40.8356 198.441 40.616C198.964 39.8694 199.826 39.4303 200.738 39.4428C201.072 39.3989 201.405 39.3675 201.745 39.3613C200.707 39.173 199.801 38.5457 199.259 37.6423C198.706 36.7137 198.938 35.5155 199.807 34.863C200.7 34.4301 201.776 34.6246 202.462 35.3461C203.11 36.0613 203.57 36.9208 203.809 37.8556C203.695 37.0463 203.846 36.2181 204.243 35.5029C204.469 34.8756 204.992 34.405 205.64 34.2482C206.47 34.1666 207.131 35.07 207.106 35.9107C207.005 36.7451 206.665 37.5356 206.131 38.1818C206.514 37.7426 207.012 37.4101 207.565 37.2219C208.062 36.9835 208.61 36.8643 209.164 36.8706C209.724 36.8831 210.246 37.1843 210.529 37.6674C210.825 38.4892 210.453 39.4052 209.661 39.7879C208.874 40.1392 208.006 40.2772 207.144 40.1894C207.848 40.478 208.459 40.961 208.906 41.5759C209.346 42.2221 209.252 43.0941 208.685 43.6336C208.239 43.9348 207.66 43.9724 207.175 43.7403C206.697 43.5019 206.294 43.1443 205.992 42.7051C205.722 42.3601 205.508 41.9774 205.357 41.5759Z" fill="#336B6B"/>
<path d="M204.111 41.8456C205.265 41.8456 206.2 40.913 206.2 39.7627C206.2 38.6123 205.265 37.6798 204.111 37.6798C202.957 37.6798 202.022 38.6123 202.022 39.7627C202.022 40.913 202.957 41.8456 204.111 41.8456Z" fill="#336B6B"/>
<path d="M187.474 39.6811C187.77 38.9659 188.197 38.3197 188.732 37.7614C187.619 40.1579 186.486 42.6297 186.348 45.2898C186.266 46.8582 186.536 48.4266 186.511 49.9951C186.536 50.2962 186.473 50.5973 186.329 50.8608C186.165 51.1243 185.838 51.231 185.548 51.1118C185.177 50.8859 185.586 49.1795 185.58 48.8093C185.567 47.7742 185.624 46.739 185.756 45.7164C186.02 43.6273 186.599 41.5946 187.474 39.6811Z" fill="#336B6B"/>
<path opacity="0.42" d="M191.306 38.7652C191.312 39.3173 191.4 39.8569 191.564 40.3838C191.652 40.9359 191.664 41.4943 191.602 42.0464C191.62 42.6236 191.394 43.1819 190.972 43.5772C190.551 43.8344 190.01 43.8344 189.588 43.5772C189.173 43.3137 188.846 42.9372 188.644 42.4918C187.977 41.0928 188.084 39.4491 188.927 38.1504C188.764 38.5143 188.493 38.8217 188.147 39.0224C187.499 39.5369 186.788 39.9698 186.033 40.3148C185.265 40.6599 184.403 40.7163 183.598 40.4842C183.403 40.4278 183.226 40.3148 183.101 40.1517C182.994 39.9572 182.95 39.7439 182.962 39.5243C182.937 39.1981 182.968 38.8656 183.063 38.5519C183.201 38.232 183.39 37.9434 183.635 37.6924C183.906 37.3536 184.233 37.0588 184.592 36.8204C185.083 36.582 185.618 36.444 186.159 36.4189C186.53 36.3687 186.907 36.3373 187.285 36.3248C186.134 36.124 185.127 35.4402 184.516 34.4426C183.906 33.4012 184.177 32.0712 185.146 31.3497C186.14 30.8604 187.348 31.0799 188.103 31.8893C188.827 32.6923 189.343 33.6584 189.601 34.7061C189.468 33.8027 189.638 32.8868 190.079 32.09C190.324 31.3874 190.909 30.8604 191.633 30.6847C192.558 30.5906 193.294 31.6007 193.269 32.5292C193.149 33.4514 192.772 34.3172 192.187 35.0386C192.615 34.5493 193.162 34.1854 193.779 33.9721C194.332 33.7086 194.943 33.5769 195.559 33.5831C196.182 33.5957 196.755 33.9345 197.076 34.4677C197.504 35.3084 196.931 36.3499 196.107 36.8329C195.239 37.2093 194.288 37.3662 193.345 37.2784C194.131 37.5983 194.811 38.1316 195.308 38.8154C195.792 39.5369 195.692 40.503 195.062 41.1053C194.565 41.4441 193.923 41.488 193.382 41.2245C192.854 40.961 192.401 40.5658 192.067 40.0764C191.746 39.6812 191.488 39.2358 191.306 38.7652Z" fill="#336B6B"/>
<path d="M189.921 39.06C191.204 39.06 192.243 38.0236 192.243 36.745C192.243 35.4665 191.204 34.4301 189.921 34.4301C188.639 34.4301 187.6 35.4665 187.6 36.745C187.6 38.0236 188.639 39.06 189.921 39.06Z" fill="#336B6B"/>
<path opacity="0.42" d="M224.982 57.8687C223.378 58.6529 221.736 59.3367 220.049 59.9264C217.771 60.7859 215.305 61.0243 212.907 60.604C213.222 61.2314 212.668 62.0093 211.995 62.2163C211.303 62.3544 210.579 62.3042 209.912 62.0658C198.693 59.3053 186.738 62.2414 175.367 60.2338L174.694 60.1084H175.015L184.573 60.2087C182.685 59.8762 180.823 59.4183 178.998 58.8348C180.257 58.4082 181.578 58.2012 182.906 58.2074C181.194 58.1133 179.508 57.8059 177.872 57.2978C177.727 57.2538 177.582 57.2036 177.444 57.1409C176.815 56.8837 176.299 56.4571 176.355 55.7983C176.84 55.8736 177.331 55.8924 177.815 55.8548C179.363 55.7231 179.873 54.7945 180.2 53.59C180.603 52.147 180.754 50.3026 182.144 48.9286C182.39 49.6313 182.641 50.3339 182.887 51.0303C183.245 50.3653 183.68 49.625 184.422 49.4305C185.165 49.236 186.064 50.0955 185.611 50.6853C186.278 50.0265 186.996 49.418 187.757 48.8722C187.826 49.4556 187.902 50.0391 187.971 50.6163C189.368 49.5246 190.922 48.6651 192.589 48.0629C192.703 48.96 192.816 49.8509 192.923 50.7543C193.829 50.0265 194.918 49.5435 196.069 49.3615C196.214 49.9136 196.352 50.4657 196.497 51.0115L199.41 49.8007C199.587 50.3653 199.756 50.9237 199.926 51.4883C201.21 51.068 202.468 50.5786 203.702 50.0265C203.651 50.9237 203.834 51.8208 204.224 52.6364C204.853 51.9714 205.904 51.2875 206.571 51.9149C206.98 52.2913 206.98 53.0065 207.452 53.314C208.308 53.866 209.289 52.4231 210.29 52.605C211.089 52.7493 211.328 53.7594 211.385 54.5687L213.656 53.5084C213.807 54.0417 213.965 54.5624 214.116 55.0894C215.015 54.506 216.028 54.117 217.092 53.9413L217.356 55.2337C218.029 54.6565 218.873 54.3052 219.76 54.2425C220.641 54.2801 221.515 55.1835 221.169 55.9928L222.132 55.5537C222.038 56.2626 222.39 56.9527 223.013 57.2978C223.623 57.6177 224.29 57.8122 224.982 57.8687Z" fill="#336B6B"/>
<path opacity="0.42" d="M212.907 60.604C213.222 61.2313 212.668 62.0093 211.995 62.2163C211.303 62.3543 210.579 62.3041 209.912 62.0657C198.693 59.3053 186.738 62.2414 175.367 60.2338H175.323C175.216 60.2087 175.116 60.1711 175.015 60.1334L184.573 60.2338C182.685 59.9013 180.823 59.4433 178.998 58.8599C180.257 58.4333 181.578 58.2262 182.906 58.2325C181.194 58.1384 179.508 57.831 177.872 57.3228C177.727 57.2789 177.582 57.2287 177.444 57.166C177.595 56.7582 177.721 56.3379 177.815 55.9112C178.117 54.5938 178.4 53.0818 179.59 51.9086C179.797 52.4921 179.999 53.0693 180.219 53.6464C180.269 53.7719 180.307 53.8911 180.351 54.0166C180.71 53.3453 181.144 52.605 181.886 52.4105C182.629 52.216 183.529 53.0755 183.082 53.6653C183.742 53.0002 184.46 52.3917 185.227 51.8522C185.297 52.4356 185.36 53.0128 185.435 53.5962C186.832 52.5109 188.393 51.6451 190.054 51.0428L190.387 53.728C191.3 53.0065 192.382 52.5234 193.533 52.3415C193.684 52.8936 193.823 53.4394 193.968 53.9978L196.881 52.7807C197.057 53.3453 197.227 53.9037 197.397 54.4683C198.68 54.0542 199.939 53.5649 201.172 53.0065C201.122 53.9037 201.298 54.8071 201.695 55.6164C202.324 54.9514 203.375 54.2738 204.042 54.8886C204.451 55.2713 204.451 55.9865 204.922 56.2939C205.778 56.846 206.76 55.4093 207.76 55.585C208.566 55.7356 208.792 56.7456 208.855 57.5549L211.127 56.4947C211.278 57.0217 211.435 57.5424 211.586 58.0694C212.486 57.4859 213.499 57.097 214.562 56.9213C214.65 57.3542 214.738 57.7808 214.82 58.2137C215.494 57.6365 216.343 57.2915 217.23 57.2287C218.111 57.2287 218.986 58.1635 218.64 58.9728L219.602 58.5336C219.514 59.0669 219.697 59.6064 220.1 59.9703C217.803 60.8235 215.317 61.0431 212.907 60.604Z" fill="#336B6B"/>
</g>
<defs>
<linearGradient id="paint0_linear_141_2705" x1="169.881" y1="145.04" x2="172.84" y2="63.5443" gradientUnits="userSpaceOnUse">
<stop offset="0.01"/>
<stop offset="0.13" stop-opacity="0.69"/>
<stop offset="1" stop-opacity="0"/>
</linearGradient>
<linearGradient id="paint1_linear_141_2705" x1="189.57" y1="113.228" x2="240.284" y2="49.3155" gradientUnits="userSpaceOnUse">
<stop offset="0.01"/>
<stop offset="0.13" stop-opacity="0.69"/>
<stop offset="1" stop-opacity="0"/>
</linearGradient>
<linearGradient id="paint2_linear_141_2705" x1="142.266" y1="109.306" x2="132.478" y2="77.7827" gradientUnits="userSpaceOnUse">
<stop offset="0.01"/>
<stop offset="0.13" stop-opacity="0.69"/>
<stop offset="1" stop-opacity="0"/>
</linearGradient>
<linearGradient id="paint3_linear_141_2705" x1="131.278" y1="103.893" x2="173.572" y2="60.4977" gradientUnits="userSpaceOnUse">
<stop offset="0.01"/>
<stop offset="0.13" stop-opacity="0.69"/>
<stop offset="1" stop-opacity="0"/>
</linearGradient>
<linearGradient id="paint4_linear_141_2705" x1="153.552" y1="228.468" x2="187.848" y2="119.749" gradientUnits="userSpaceOnUse">
<stop offset="0.01"/>
<stop offset="0.13" stop-opacity="0.69"/>
<stop offset="1" stop-opacity="0"/>
</linearGradient>
<linearGradient id="paint5_linear_141_2705" x1="159.01" y1="110.119" x2="148.288" y2="204.645" gradientUnits="userSpaceOnUse">
<stop offset="0.01"/>
<stop offset="0.13" stop-opacity="0.69"/>
<stop offset="1" stop-opacity="0"/>
</linearGradient>
<linearGradient id="paint6_linear_141_2705" x1="207.459" y1="100.961" x2="210.843" y2="169.446" gradientUnits="userSpaceOnUse">
<stop offset="0.01"/>
<stop offset="0.13" stop-opacity="0.69"/>
<stop offset="1" stop-opacity="0"/>
</linearGradient>
<linearGradient id="paint7_linear_141_2705" x1="142.928" y1="97.9998" x2="142.647" y2="168.742" gradientUnits="userSpaceOnUse">
<stop offset="0.01"/>
<stop offset="0.13" stop-opacity="0.69"/>
<stop offset="1" stop-opacity="0"/>
</linearGradient>
<linearGradient id="paint8_linear_141_2705" x1="102.815" y1="158.811" x2="101.126" y2="250.495" gradientUnits="userSpaceOnUse">
<stop offset="0.01"/>
<stop offset="0.13" stop-opacity="0.69"/>
<stop offset="1" stop-opacity="0"/>
</linearGradient>
<linearGradient id="paint9_linear_141_2705" x1="234.743" y1="177.655" x2="253.946" y2="221.845" gradientUnits="userSpaceOnUse">
<stop offset="0.01"/>
<stop offset="0.13" stop-opacity="0.69"/>
<stop offset="1" stop-opacity="0"/>
</linearGradient>
<linearGradient id="paint10_linear_141_2705" x1="132.767" y1="253.918" x2="174.589" y2="181.368" gradientUnits="userSpaceOnUse">
<stop offset="0.01"/>
<stop offset="0.13" stop-opacity="0.69"/>
<stop offset="1" stop-opacity="0"/>
</linearGradient>
<clipPath id="clip0_141_2705">
<rect width="327" height="268" fill="white"/>
</clipPath>
</defs>
</svg>
